<svg width="6" height="6" viewBox="0 0 6 6" fill="none" xmlns="http://www.w3.org/2000/svg">
<path d="M3 6C2.84404 6 2.71986 5.8874 2.68807 5.71986C2.39069 3.79689 2.1512 3.5688 0.288765 3.31182C0.121222 3.28871 0 3.16167 0 2.99999C0 2.83828 0.124179 2.70548 0.291721 2.68525C2.15687 2.47737 2.42247 2.20595 2.68807 0.280071C2.71419 0.115483 2.84108 0 3 0C3.15596 0 3.28285 0.115483 3.30897 0.280071C3.60069 2.20595 3.85176 2.45426 5.71124 2.68525C5.87582 2.70836 6 2.83828 6 2.99999C6 3.16167 5.87582 3.29161 5.70828 3.31182C3.84313 3.5226 3.57457 3.794 3.30897 5.71986C3.28581 5.88444 3.15892 6 3 6Z" fill="#FECC13"/>
</svg>
