<svg width="7" height="6" viewBox="0 0 7 6" fill="none" xmlns="http://www.w3.org/2000/svg">
<path d="M3.5 6C3.34404 6 3.21986 5.8874 3.18807 5.71986C2.89069 3.79689 2.6512 3.5688 0.788765 3.31182C0.621222 3.28871 0.5 3.16167 0.5 2.99999C0.5 2.83828 0.624179 2.70548 0.791721 2.68525C2.65687 2.47737 2.92247 2.20595 3.18807 0.280071C3.21419 0.115483 3.34108 0 3.5 0C3.65596 0 3.78285 0.115483 3.80897 0.280071C4.10069 2.20595 4.35176 2.45426 6.21124 2.68525C6.37582 2.70836 6.5 2.83828 6.5 2.99999C6.5 3.16167 6.37582 3.29161 6.20828 3.31182C4.34313 3.5226 4.07457 3.794 3.80897 5.71986C3.78581 5.88444 3.65892 6 3.5 6Z" fill="#FF9044"/>
</svg>
