<svg width="11" height="10" viewBox="0 0 11 10" fill="none" xmlns="http://www.w3.org/2000/svg">
<path d="M5.5 10C5.24006 10 5.0331 9.81233 4.98012 9.53309C4.48448 6.32814 4.08533 5.948 0.981275 5.5197C0.702037 5.48118 0.5 5.26945 0.5 4.99998C0.5 4.73047 0.706965 4.50913 0.986202 4.47542C4.09478 4.12895 4.53745 3.67658 4.98012 0.466785C5.02365 0.192471 5.23513 0 5.5 0C5.75994 0 5.97142 0.192471 6.01495 0.466785C6.50115 3.67658 6.9196 4.09043 10.0187 4.47542C10.293 4.51394 10.5 4.73047 10.5 4.99998C10.5 5.26945 10.293 5.48602 10.0138 5.5197C6.90522 5.87101 6.45762 6.32334 6.01495 9.53309C5.97635 9.80741 5.76487 10 5.5 10Z" fill="#FECC13"/>
</svg>
